# Blender v2.90.1 OBJ File: ''
# www.blender.org
mtllib Crate Box.mtl
o Cube_Cube.004
v -1.000000 -1.000000 1.000000
v -1.000000 1.000000 1.000000
v -1.000000 -1.000000 -1.000000
v -1.000000 1.000000 -1.000000
v 1.000000 -1.000000 1.000000
v 1.000000 1.000000 1.000000
v 1.000000 -1.000000 -1.000000
v 1.000000 1.000000 -1.000000
v -1.000000 -0.641120 0.641120
v -1.000000 0.641120 0.641120
v -1.000000 0.641120 -0.641120
v -1.000000 -0.641120 -0.641120
v -0.641120 -0.641120 -1.000000
v -0.641120 0.641120 -1.000000
v 0.641120 0.641120 -1.000000
v 0.641120 -0.641120 -1.000000
v 1.000000 -0.641120 -0.641120
v 1.000000 0.641120 -0.641120
v 1.000000 0.641120 0.641120
v 1.000000 -0.641120 0.641120
v 0.641120 -0.641120 1.000000
v 0.641120 0.641120 1.000000
v -0.641120 0.641120 1.000000
v -0.641120 -0.641120 1.000000
v -0.641120 -1.000000 -0.641120
v 0.641120 -1.000000 -0.641120
v 0.641120 -1.000000 0.641120
v -0.641120 -1.000000 0.641120
v 0.641120 1.000000 -0.641120
v -0.641120 1.000000 -0.641120
v -0.641120 1.000000 0.641120
v 0.641120 1.000000 0.641120
v -0.910286 -0.641120 0.641120
v -0.910286 0.641120 0.641120
v -0.910286 0.641120 -0.641120
v -0.910286 -0.641120 -0.641120
v -0.641120 -0.641120 -0.910286
v -0.641120 0.641120 -0.910286
v 0.641120 0.641120 -0.910286
v 0.641120 -0.641120 -0.910286
v 0.910286 -0.641120 -0.641120
v 0.910286 0.641120 -0.641120
v 0.910286 0.641120 0.641120
v 0.910286 -0.641120 0.641120
v 0.641120 -0.641120 0.910286
v 0.641120 0.641120 0.910286
v -0.641120 0.641120 0.910286
v -0.641120 -0.641120 0.910286
v -0.641120 -0.910286 -0.641120
v 0.641120 -0.910286 -0.641120
v 0.641120 -0.910286 0.641120
v -0.641120 -0.910286 0.641120
v 0.641120 0.910286 -0.641120
v -0.641120 0.910286 -0.641120
v -0.641120 0.910286 0.641120
v 0.641120 0.910286 0.641120
v -0.663366 -1.000000 -1.000000
v -0.663366 1.000000 -1.000000
v -0.663366 -1.000000 1.000000
v -0.663366 1.000000 1.000000
v -0.425298 -0.641120 -1.000000
v -0.425298 0.641120 -1.000000
v -0.425298 -0.641120 1.000000
v -0.425298 0.641120 1.000000
v -0.425298 -1.000000 -0.641120
v -0.425298 -1.000000 0.641120
v -0.425298 1.000000 -0.641120
v -0.425298 1.000000 0.641120
v -0.425298 0.641120 -0.910286
v -0.425298 -0.641120 -0.910286
v -0.425298 0.641120 0.910286
v -0.425298 -0.641120 0.910286
v -0.425298 -0.910286 -0.641120
v -0.425298 -0.910286 0.641120
v -0.425298 0.910286 -0.641120
v -0.425298 0.910286 0.641120
v 0.679351 1.000000 -1.000000
v 0.679351 -1.000000 1.000000
v 0.435546 0.641120 -1.000000
v 0.435546 -0.641120 1.000000
v 0.435546 -1.000000 0.641120
v 0.435546 1.000000 -0.641120
v 0.435546 -0.641120 -0.910286
v 0.435546 0.641120 0.910286
v 0.435546 -0.910286 0.641120
v 0.435546 0.910286 -0.641120
v 0.679351 -1.000000 -1.000000
v 0.679351 1.000000 1.000000
v 0.435546 -0.641120 -1.000000
v 0.435546 0.641120 1.000000
v 0.435546 -1.000000 -0.641120
v 0.435546 1.000000 0.641120
v 0.435546 0.641120 -0.910286
v 0.435546 -0.641120 0.910286
v 0.435546 -0.910286 -0.641120
v 0.435546 0.910286 0.641120
v -1.000000 0.690000 1.000000
v -1.000000 0.690000 -1.000000
v 1.000000 0.690000 -1.000000
v 1.000000 0.690000 1.000000
v -1.000000 0.442373 0.641120
v -1.000000 0.442373 -0.641120
v -0.641120 0.442373 -1.000000
v 0.641120 0.442373 -1.000000
v 1.000000 0.442373 -0.641120
v 1.000000 0.442373 0.641120
v 0.641120 0.442373 1.000000
v -0.641120 0.442373 1.000000
v -0.910286 0.442373 0.641120
v -0.910286 0.442373 -0.641120
v -0.641120 0.442373 -0.910286
v 0.641120 0.442373 -0.910286
v 0.910286 0.442373 -0.641120
v 0.910286 0.442373 0.641120
v 0.641120 0.442373 0.910286
v -0.641120 0.442373 0.910286
v -0.425298 0.442373 0.910286
v -0.425298 0.442373 -0.910286
v 0.435546 0.442373 0.910286
v 0.435546 0.442373 -0.910286
v -1.000000 -0.652059 -1.000000
v 1.000000 -0.652059 -1.000000
v 1.000000 -0.652059 1.000000
v -1.000000 -0.418048 -0.641120
v -0.641120 -0.418048 -1.000000
v 0.641120 -0.418048 -1.000000
v 1.000000 -0.418048 -0.641120
v 1.000000 -0.418048 0.641120
v 0.641120 -0.418048 1.000000
v -0.910286 -0.418048 0.641120
v -0.641120 -0.418048 -0.910286
v 0.910286 -0.418048 -0.641120
v 0.641120 -0.418048 0.910286
v -0.425298 -0.418048 0.910286
v -0.425298 -0.418048 -0.910286
v 0.435546 -0.418048 0.910286
v 0.435546 -0.418048 -0.910286
v -1.000000 -0.652059 1.000000
v -1.000000 -0.418048 0.641120
v -0.641120 -0.418048 1.000000
v -0.910286 -0.418048 -0.641120
v 0.641120 -0.418048 -0.910286
v 0.910286 -0.418048 0.641120
v -0.641120 -0.418048 0.910286
v -1.000000 -1.000000 -0.670000
v -1.000000 1.000000 -0.670000
v 1.000000 -1.000000 -0.670000
v 1.000000 1.000000 -0.670000
v -1.000000 -0.641120 -0.429551
v -1.000000 0.641120 -0.429551
v 1.000000 -0.641120 -0.429551
v 1.000000 0.641120 -0.429551
v -0.641120 -1.000000 -0.429551
v 0.641120 -1.000000 -0.429551
v 0.641120 1.000000 -0.429551
v -0.641120 1.000000 -0.429551
v -0.910286 0.641120 -0.429551
v -0.910286 -0.641120 -0.429551
v 0.910286 0.641120 -0.429551
v 0.910286 -0.641120 -0.429551
v 0.641120 -0.910286 -0.429551
v -0.641120 -0.910286 -0.429551
v -0.641120 0.910286 -0.429551
v 0.641120 0.910286 -0.429551
v -0.425298 0.910286 -0.429551
v -0.425298 -0.910286 -0.429551
v 0.435546 0.910286 -0.429551
v 0.435546 -0.910286 -0.429551
v 0.910286 0.442373 -0.429551
v -0.910286 0.442373 -0.429551
v -0.910286 -0.418048 -0.429551
v 0.910286 -0.418048 -0.429551
v -1.000000 -1.000000 0.688133
v 1.000000 1.000000 0.688133
v -1.000000 -0.641120 0.441176
v 1.000000 0.641120 0.441176
v -0.641120 -1.000000 0.441176
v 0.641120 1.000000 0.441176
v -0.910286 0.641120 0.441176
v 0.910286 -0.641120 0.441176
v -0.641120 -0.910286 0.441176
v 0.641120 0.910286 0.441176
v -0.425298 0.910286 0.441176
v -0.425298 -0.910286 0.441176
v 0.435546 0.910286 0.441176
v 0.435546 -0.910286 0.441176
v 0.910286 0.442373 0.441176
v 0.910286 -0.418048 0.441176
v -1.000000 1.000000 0.688133
v 1.000000 -1.000000 0.688133
v -1.000000 0.641120 0.441176
v 1.000000 -0.641120 0.441176
v 0.641120 -1.000000 0.441176
v -0.641120 1.000000 0.441176
v -0.910286 -0.641120 0.441176
v 0.910286 0.641120 0.441176
v 0.641120 -0.910286 0.441176
v -0.641120 0.910286 0.441176
v -0.910286 0.442373 0.441176
v -0.910286 -0.418048 0.441176
vt 0.555297 0.178694
vt 0.580140 0.178694
vt 0.580140 0.205140
vt 0.555297 0.205140
vt 0.580140 0.178694
vt 0.447744 0.044860
vt 0.447744 0.044860
vt 0.580140 0.955140
vt 0.580140 0.928162
vt 0.580140 0.069853
vt 0.580140 0.044860
vt 0.419860 0.044860
vt 0.555297 0.955140
vt 0.555297 0.044860
vt 0.555297 0.429443
vt 0.580140 0.429443
vt 0.580140 0.455140
vt 0.555297 0.455140
vt 0.447744 0.294860
vt 0.419860 0.294860
vt 0.555297 0.294860
vt 0.555297 0.294860
vt 0.419860 0.429443
vt 0.419860 0.429443
vt 0.419860 0.321838
vt 0.580140 0.294860
vt 0.419860 0.455140
vt 0.555297 0.680147
vt 0.580140 0.680147
vt 0.580140 0.705140
vt 0.555297 0.705140
vt 0.555297 0.794860
vt 0.555297 0.794860
vt 0.555297 0.705140
vt 0.555297 0.544860
vt 0.555297 0.544860
vt 0.419860 0.680147
vt 0.419860 0.680147
vt 0.580140 0.794860
vt 0.580140 0.544860
vt 0.419860 0.705140
vt 0.555297 0.928162
vt 0.555297 0.955140
vt 0.555297 0.044860
vt 0.580140 0.820557
vt 0.580140 0.955140
vt 0.580140 0.044860
vt 0.580140 0.820557
vt 0.580140 0.680147
vt 0.304443 0.680147
vt 0.330140 0.680147
vt 0.330140 0.705140
vt 0.304443 0.705140
vt 0.196838 0.544860
vt 0.169860 0.544860
vt 0.330140 0.544860
vt 0.304443 0.544860
vt 0.169860 0.680147
vt 0.169860 0.705140
vt 0.169860 0.571306
vt 0.330140 0.571306
vt 0.196838 0.705140
vt 0.803162 0.680147
vt 0.830140 0.680147
vt 0.830140 0.705140
vt 0.803162 0.705140
vt 0.695557 0.544860
vt 0.669860 0.544860
vt 0.830140 0.544860
vt 0.803162 0.544860
vt 0.669860 0.680147
vt 0.669860 0.705140
vt 0.669860 0.571306
vt 0.830140 0.571306
vt 0.695557 0.705140
vt 0.695557 0.705140
vt 0.803162 0.705140
vt 0.830140 0.571306
vt 0.695557 0.680147
vt 0.330140 0.571306
vt 0.196838 0.705140
vt 0.304443 0.544860
vt 0.196838 0.544860
vt 0.196838 0.680147
vt 0.419860 0.820557
vt 0.419860 0.820557
vt 0.419860 0.928162
vt 0.419860 0.928162
vt 0.555297 0.820557
vt 0.555297 0.455140
vt 0.419860 0.321838
vt 0.580140 0.429443
vt 0.580140 0.321838
vt 0.580140 0.321838
vt 0.555297 0.321838
vt 0.803162 0.544860
vt 0.695557 0.544860
vt 0.304443 0.705140
vt 0.580140 0.928162
vt 0.447744 0.794860
vt 0.447744 0.820557
vt 0.447744 0.321838
vt 0.447744 0.955140
vt 0.447744 0.955140
vt 0.447744 0.928162
vt 0.447744 0.705140
vt 0.447744 0.705140
vt 0.580140 0.571306
vt 0.447744 0.680147
vt 0.447744 0.455140
vt 0.447744 0.455140
vt 0.447744 0.429443
vt 0.447744 0.205140
vt 0.447744 0.205140
vt 0.555297 0.205140
vt 0.419860 0.178694
vt 0.419860 0.178694
vt 0.447744 0.178694
vt 0.419860 0.205140
vt 0.580140 0.571306
vt 0.419860 0.955140
vt 0.447744 0.544860
vt 0.447744 0.544860
vt 0.419860 0.794860
vt 0.447744 0.794860
vt 0.447744 0.294860
vt 0.419860 0.544860
vt 0.447744 0.571306
vt 0.419860 0.571306
vt 0.419860 0.069853
vt 0.447744 0.069853
vt 0.555297 0.571306
vt 0.304443 0.571306
vt 0.196838 0.571306
vt 0.695557 0.571306
vt 0.803162 0.571306
vt 0.669860 0.571306
vt 0.830140 0.680147
vt 0.169860 0.571306
vt 0.330140 0.680147
vt 0.419860 0.069853
vt 0.555297 0.069853
vt 0.669860 0.680147
vt 0.169860 0.680147
vt 0.419860 0.571306
vt 0.580140 0.069853
vt 0.580140 0.794860
vt 0.580140 0.705140
vt 0.586250 0.000000
vt 0.625000 0.000000
vt 0.625000 0.208750
vt 0.625000 0.250000
vt 0.580140 0.205140
vt 0.418493 0.250000
vt 0.375000 0.250000
vt 0.419860 0.205140
vt 0.375000 0.038983
vt 0.375000 0.000000
vt 0.419860 0.044860
vt 0.586250 0.250000
vt 0.580140 0.294860
vt 0.625000 0.459919
vt 0.625000 0.500000
vt 0.580140 0.455140
vt 0.418493 0.500000
vt 0.375000 0.500000
vt 0.419860 0.455140
vt 0.375000 0.292079
vt 0.419860 0.294860
vt 0.586250 0.500000
vt 0.580140 0.544860
vt 0.625000 0.711017
vt 0.625000 0.750000
vt 0.418493 0.750000
vt 0.375000 0.750000
vt 0.419860 0.705140
vt 0.375000 0.541250
vt 0.419860 0.544860
vt 0.586250 0.750000
vt 0.625000 0.957921
vt 0.625000 1.000000
vt 0.418493 1.000000
vt 0.375000 1.000000
vt 0.419860 0.955140
vt 0.375000 0.790081
vt 0.419860 0.794860
vt 0.334919 0.500000
vt 0.330140 0.544860
vt 0.375000 0.711017
vt 0.330140 0.705140
vt 0.167079 0.750000
vt 0.125000 0.750000
vt 0.169860 0.705140
vt 0.125000 0.541250
vt 0.125000 0.500000
vt 0.169860 0.544860
vt 0.832921 0.500000
vt 0.875000 0.500000
vt 0.830140 0.544860
vt 0.875000 0.711017
vt 0.875000 0.750000
vt 0.830140 0.705140
vt 0.665081 0.750000
vt 0.669860 0.705140
vt 0.625000 0.541250
vt 0.669860 0.544860
vt 0.832921 0.750000
vt 0.665081 0.500000
vt 0.334919 0.750000
vt 0.167079 0.500000
vt 0.375000 0.957921
vt 0.625000 0.790081
vt 0.375000 0.459919
vt 0.625000 0.292079
vt 0.586250 1.000000
vt 0.418493 0.000000
vt 0.875000 0.541250
vt 0.125000 0.711017
vt 0.375000 0.208750
vt 0.625000 0.038983
vn -1.0000 0.0000 0.0000
vn 0.0000 0.7109 0.7033
vn 0.0000 1.0000 0.0000
vn 1.0000 0.0000 0.0000
vn -0.7071 0.0000 0.7071
vn 0.0000 0.0000 -1.0000
vn 0.0000 0.0000 1.0000
vn -0.7093 -0.7049 -0.0000
vn 0.0000 -0.7067 -0.7075
vn 0.7071 0.0000 0.7071
vn 0.7071 0.0000 -0.7071
vn 0.0000 -1.0000 0.0000
vn -0.7051 0.0000 0.7091
vn 0.7085 0.0000 0.7057
vn 0.7127 -0.7015 0.0000
vn 0.0000 -0.7029 0.7113
vn 0.7047 0.7095 -0.0000
vn 0.0000 0.7147 -0.6994
vn 0.7123 0.0000 -0.7019
vn -0.7089 0.0000 -0.7053
vn -0.7013 0.7129 0.0000
vn -0.7071 0.0000 -0.7071
usemtl Material.001
s off
f 170/1/1 157/2/1 35/3/1 110/4/1
f 157/2/2 150/5/2 139/6/2 130/7/2
f 47/8/3 71/9/3 179/10/3 34/11/3
f 35/3/4 157/2/4 130/7/4 33/12/4
f 116/13/5 47/8/5 34/11/5 109/14/5
f 120/15/6 93/16/6 39/17/6 112/18/6
f 39/17/7 93/16/7 131/19/7 37/20/7
f 111/21/8 103/22/8 89/23/8 83/24/8
f 112/18/7 39/17/7 37/20/7 70/25/7
f 38/26/7 111/21/7 83/24/7 40/27/7
f 187/28/4 196/29/4 43/30/4 114/31/4
f 115/32/3 107/33/3 106/34/3 114/31/3
f 113/35/9 105/36/9 192/37/9 180/38/9
f 46/39/10 115/32/10 114/31/10 43/30/10
f 42/40/1 113/35/1 180/38/1 44/41/1
f 117/42/7 71/9/7 47/8/7 116/13/7
f 108/43/3 116/13/3 109/14/3 101/44/3
f 84/45/3 46/39/3 43/30/3 196/29/3
f 23/46/11 108/43/11 101/44/11 10/47/11
f 90/48/12 84/45/12 196/29/12 176/49/12
f 186/50/12 197/51/12 51/52/12 85/53/12
f 51/52/3 197/51/3 73/54/3 49/55/3
f 50/56/3 95/57/3 181/58/3 52/59/3
f 85/53/3 51/52/3 49/55/3 162/60/3
f 161/61/3 50/56/3 52/59/3 74/62/3
f 183/63/3 198/64/3 55/65/3 76/66/3
f 55/65/12 198/64/12 86/67/12 53/68/12
f 54/69/12 75/70/12 182/71/12 56/72/12
f 76/66/12 55/65/12 53/68/12 164/73/12
f 163/74/12 54/69/12 56/72/12 96/75/12
f 92/76/6 96/75/6 76/66/6 68/77/6
f 156/78/13 163/74/13 96/75/13 92/76/13
f 185/79/3 183/63/3 76/66/3 96/75/3
f 154/80/14 161/61/14 74/62/14 66/81/14
f 91/82/7 95/57/7 73/54/7 65/83/7
f 181/58/12 184/84/12 74/62/12 52/59/12
f 80/85/3 94/86/3 72/87/3 63/88/3
f 119/89/7 84/45/7 71/9/7 117/42/7
f 104/90/15 112/18/15 70/25/15 61/91/15
f 79/92/12 93/16/12 69/93/12 62/94/12
f 111/21/6 38/26/6 69/93/6 118/95/6
f 115/32/7 46/39/7 84/45/7 119/89/7
f 182/71/3 185/79/3 96/75/3 56/72/3
f 67/96/7 75/70/7 86/67/7 82/97/7
f 66/81/6 74/62/6 85/53/6 81/98/6
f 184/84/12 186/50/12 85/53/12 74/62/12
f 64/99/12 71/9/12 84/45/12 90/48/12
f 61/91/3 70/25/3 83/24/3 89/23/3
f 118/95/6 69/93/6 93/16/6 120/15/6
f 133/100/7 115/32/7 119/89/7 136/101/7
f 131/19/6 111/21/6 118/95/6 135/102/6
f 140/103/4 144/104/4 116/13/4 108/43/4
f 134/105/7 117/42/7 116/13/7 144/104/7
f 128/106/6 143/107/6 114/31/6 106/34/6
f 159/108/1 42/40/1 44/41/1 143/107/1
f 188/109/4 187/28/4 114/31/4 143/107/4
f 126/110/1 142/111/1 112/18/1 104/90/1
f 69/93/7 38/26/7 40/27/7 142/111/7
f 137/112/6 120/15/6 112/18/6 142/111/6
f 124/113/7 141/114/7 110/4/7 102/115/7
f 109/14/16 101/44/16 149/116/16 158/117/16
f 171/118/1 170/1/1 110/4/1 141/114/1
f 158/117/1 171/118/1 141/114/1 36/119/1
f 34/11/4 109/14/4 158/117/4 36/119/4
f 83/24/6 137/112/6 142/111/6 40/27/6
f 62/94/17 69/93/17 142/111/17 126/110/17
f 180/38/4 188/109/4 143/107/4 44/41/4
f 152/120/2 159/108/2 143/107/2 128/106/2
f 72/87/7 134/105/7 144/104/7 48/121/7
f 196/29/18 176/49/18 127/122/18 132/123/18
f 94/86/7 136/101/7 134/105/7 72/87/7
f 37/20/6 131/19/6 135/102/6 70/25/6
f 45/124/7 133/100/7 136/101/7 94/86/7
f 70/25/6 135/102/6 137/112/6 83/24/6
f 107/33/1 115/32/1 133/100/1 129/125/1
f 105/36/7 113/35/7 132/123/7 127/122/7
f 103/22/4 111/21/4 131/19/4 125/126/4
f 101/44/6 109/14/6 130/7/6 139/6/6
f 41/127/4 132/123/4 172/128/4 160/129/4
f 195/130/1 200/131/1 171/118/1 158/117/1
f 132/123/4 113/35/4 169/132/4 172/128/4
f 73/54/12 95/57/12 168/133/12 166/134/12
f 53/68/3 86/67/3 167/135/3 164/73/3
f 49/55/12 73/54/12 166/134/12 162/60/12
f 86/67/3 75/70/3 165/136/3 167/135/3
f 68/77/14 76/66/14 164/73/14 155/137/14
f 194/138/4 198/64/4 163/74/4 156/78/4
f 75/70/3 54/69/3 163/74/3 165/136/3
f 81/98/13 85/53/13 162/60/13 153/139/13
f 193/140/1 197/51/1 161/61/1 154/80/1
f 95/57/12 50/56/12 161/61/12 168/133/12
f 43/30/1 196/29/1 132/123/1 41/127/1
f 176/49/12 196/29/12 159/108/12 152/120/12
f 113/35/4 42/40/4 159/108/4 169/132/4
f 175/141/3 195/130/3 158/117/3 149/116/3
f 110/4/4 35/3/4 33/12/4 195/130/4
f 199/142/1 179/10/1 157/2/1 170/1/1
f 109/14/1 34/11/1 179/10/1 199/142/1
f 102/115/9 110/4/9 195/130/9 175/141/9
f 114/31/1 43/30/1 41/127/1 160/129/1
f 130/7/1 109/14/1 199/142/1 200/131/1
f 33/12/1 130/7/1 200/131/1 195/130/1
f 160/129/4 172/128/4 188/109/4 180/38/4
f 164/73/3 167/135/3 185/79/3 182/71/3
f 162/60/12 166/134/12 184/84/12 181/58/12
f 155/137/1 164/73/1 182/71/1 178/143/1
f 165/136/3 163/74/3 198/64/3 183/63/3
f 153/139/4 162/60/4 181/58/4 177/144/4
f 168/133/12 161/61/12 197/51/12 186/50/12
f 151/145/3 160/129/3 180/38/3 192/37/3
f 169/132/4 159/108/4 196/29/4 187/28/4
f 150/5/12 157/2/12 179/10/12 191/146/12
f 75/70/19 67/96/19 178/143/19 182/71/19
f 198/64/20 194/138/20 82/97/20 86/67/20
f 93/16/21 79/92/21 125/126/21 131/19/21
f 106/34/16 114/31/16 160/129/16 151/145/16
f 107/33/22 22/147/22 19/148/22 106/34/22
f 22/147/12 90/48/12 176/49/12 19/148/12
f 63/88/15 72/87/15 115/32/15 107/33/15
f 72/87/6 48/121/6 46/39/6 115/32/6
f 48/121/6 144/104/6 84/45/6 46/39/6
f 144/104/21 140/103/21 90/48/21 84/45/21
f 179/10/4 34/11/4 36/119/4 141/114/4
f 191/146/18 179/10/18 141/114/18 124/113/18
f 71/9/12 64/99/12 191/146/12 179/10/12
f 64/99/12 23/46/12 10/47/12 191/146/12
f 129/125/17 133/100/17 71/9/17 64/99/17
f 133/100/6 45/124/6 47/8/6 71/9/6
f 45/124/6 94/86/6 116/13/6 47/8/6
f 94/86/8 80/85/8 108/43/8 116/13/8
f 95/57/20 91/82/20 177/144/20 181/58/20
f 197/51/19 193/140/19 65/83/19 73/54/19
usemtl Material.002
f 135/102/6 118/95/6 120/15/6 137/112/6
f 136/101/7 119/89/7 117/42/7 134/105/7
f 200/131/1 199/142/1 170/1/1 171/118/1
f 172/128/4 169/132/4 187/28/4 188/109/4
f 166/134/12 168/133/12 186/50/12 184/84/12
f 167/135/3 165/136/3 183/63/3 185/79/3
usemtl Material.003
f 97/149/1 2/150/1 10/47/1 101/44/1
f 146/151/1 4/152/1 11/153/1 150/5/1
f 121/154/1 3/155/1 12/156/1 124/113/1
f 173/157/1 1/158/1 9/159/1 175/141/1
f 98/160/6 4/152/6 14/161/6 103/22/6
f 77/162/6 8/163/6 15/164/6 79/92/6
f 122/165/6 7/166/6 16/167/6 126/110/6
f 57/168/6 3/155/6 13/169/6 61/91/6
f 99/170/4 8/163/4 18/171/4 105/36/4
f 174/172/4 6/173/4 19/148/4 176/49/4
f 123/174/4 5/175/4 20/176/4 128/106/4
f 147/177/4 7/166/4 17/178/4 151/145/4
f 100/179/7 6/173/7 22/147/7 107/33/7
f 60/180/7 2/181/7 23/46/7 64/99/7
f 138/182/7 1/183/7 24/184/7 140/103/7
f 78/185/7 5/175/7 21/186/7 80/85/7
f 87/187/12 7/166/12 26/188/12 91/82/12
f 190/189/12 5/175/12 27/190/12 193/140/12
f 59/191/12 1/192/12 28/193/12 66/81/12
f 145/194/12 3/195/12 25/196/12 153/139/12
f 58/197/3 4/198/3 30/199/3 67/96/3
f 189/200/3 2/201/3 31/202/3 194/138/3
f 88/203/3 6/173/3 32/204/3 92/76/3
f 148/205/3 8/163/3 29/206/3 155/137/3
f 10/47/1 191/146/1 124/113/1 12/156/1
f 2/201/3 60/207/3 68/77/3 31/202/3
f 77/208/3 58/197/3 67/96/3 82/97/3
f 78/209/12 59/191/12 66/81/12 81/98/12
f 3/195/12 57/210/12 65/83/12 25/196/12
f 1/183/7 59/211/7 63/88/7 24/184/7
f 88/212/7 60/180/7 64/99/7 90/48/7
f 87/213/6 57/168/6 61/91/6 89/23/6
f 4/152/6 58/214/6 62/94/6 14/161/6
f 7/166/6 87/213/6 89/23/6 16/167/6
f 6/173/7 88/212/7 90/48/7 22/147/7
f 5/175/12 78/209/12 81/98/12 27/190/12
f 8/163/3 77/208/3 82/97/3 29/206/3
f 15/164/6 104/90/6 61/91/6 13/169/6
f 101/44/1 10/47/1 12/156/1 149/116/1
f 26/188/12 154/80/12 66/81/12 28/193/12
f 30/199/3 156/78/3 92/76/3 32/204/3
f 60/207/3 88/203/3 92/76/3 68/77/3
f 57/210/12 87/187/12 91/82/12 65/83/12
f 59/211/7 78/185/7 80/85/7 63/88/7
f 58/214/6 77/162/6 79/92/6 62/94/6
f 176/49/4 19/148/4 17/178/4 127/122/4
f 2/181/7 97/215/7 108/43/7 23/46/7
f 123/174/7 100/179/7 107/33/7 129/125/7
f 6/173/4 100/179/4 106/34/4 19/148/4
f 122/165/4 99/170/4 105/36/4 127/122/4
f 8/163/6 99/170/6 104/90/6 15/164/6
f 121/154/6 98/160/6 103/22/6 125/126/6
f 4/152/1 98/160/1 102/115/1 11/153/1
f 138/216/1 97/149/1 101/44/1 139/6/1
f 1/158/1 138/216/1 139/6/1 9/159/1
f 3/155/6 121/154/6 125/126/6 13/169/6
f 7/166/4 122/165/4 127/122/4 17/178/4
f 5/175/7 123/174/7 129/125/7 21/186/7
f 97/215/7 138/182/7 140/103/7 108/43/7
f 100/179/4 123/174/4 128/106/4 106/34/4
f 99/170/6 122/165/6 126/110/6 104/90/6
f 98/160/1 121/154/1 124/113/1 102/115/1
f 174/172/3 148/205/3 155/137/3 178/143/3
f 4/198/3 146/217/3 156/78/3 30/199/3
f 173/218/12 145/194/12 153/139/12 177/144/12
f 7/166/12 147/177/12 154/80/12 26/188/12
f 190/189/4 147/177/4 151/145/4 192/37/4
f 8/163/4 148/205/4 152/120/4 18/171/4
f 3/155/1 145/219/1 149/116/1 12/156/1
f 189/220/1 146/151/1 150/5/1 191/146/1
f 2/150/1 189/220/1 191/146/1 10/47/1
f 5/175/4 190/189/4 192/37/4 20/176/4
f 1/192/12 173/218/12 177/144/12 28/193/12
f 6/173/3 174/172/3 178/143/3 32/204/3
f 27/190/12 81/98/12 153/139/12 25/196/12
f 31/202/3 68/77/3 155/137/3 29/206/3
f 146/217/3 189/200/3 194/138/3 156/78/3
f 147/177/12 190/189/12 193/140/12 154/80/12
f 148/205/4 174/172/4 176/49/4 152/120/4
f 145/219/1 173/157/1 175/141/1 149/116/1
f 103/22/6 14/161/6 16/167/6 89/23/6
f 14/161/6 62/94/6 126/110/6 16/167/6
f 150/5/1 11/153/1 9/159/1 139/6/1
f 11/153/1 102/115/1 175/141/1 9/159/1
f 67/96/3 30/199/3 32/204/3 178/143/3
f 194/138/3 31/202/3 29/206/3 82/97/3
f 79/92/6 15/164/6 13/169/6 125/126/6
f 105/36/4 18/171/4 20/176/4 192/37/4
f 18/171/4 152/120/4 128/106/4 20/176/4
f 19/148/4 106/34/4 151/145/4 17/178/4
f 24/184/7 63/88/7 107/33/7 22/147/7
f 140/103/7 24/184/7 22/147/7 90/48/7
f 80/85/7 21/186/7 23/46/7 108/43/7
f 21/186/7 129/125/7 64/99/7 23/46/7
f 91/82/12 26/188/12 28/193/12 177/144/12
f 193/140/12 27/190/12 25/196/12 65/83/12
